HIERARCHY
ROOT Pelvis
{
	OFFSET 0.000000 0.000000 0.000000
	CHANNELS 6 Xposition Yposition Zposition Xrotation Yrotation Zrotation
	JOINT LeftUpLeg_virtual
	{
		OFFSET 0.000000 0.000000 0.000000
		CHANNELS 3 Xrotation Yrotation Zrotation
		JOINT LeftUpLeg
		{
			OFFSET 18.735201 -5.666702 -4.541200
			CHANNELS 3 Xrotation Yrotation Zrotation
			JOINT LeftLeg
			{
				OFFSET -0.021200 -31.938179 0.493100
				CHANNELS 3 Xrotation Yrotation Zrotation
				JOINT LeftFoot
				{
					OFFSET 0.021200 -31.938179 -4.336299
					CHANNELS 3 Xrotation Yrotation Zrotation
					JOINT LeftToeBase
					{
						OFFSET 0.943001 -26.722000 15.023500
						CHANNELS 3 Xrotation Yrotation Zrotation
						End Site
						{
							OFFSET 0 0 0
						}
					}
				}
			}
		}
	}
	JOINT RightUpLeg_virtual
	{
		OFFSET 0.000000 0.000000 0.000000
		CHANNELS 3 Xrotation Yrotation Zrotation
		JOINT RightUpLeg
		{
			OFFSET -18.735201 -5.666702 -4.541200
			CHANNELS 3 Xrotation Yrotation Zrotation
			JOINT RightLeg
			{
				OFFSET 0.018946 -31.938133 0.493100
				CHANNELS 3 Xrotation Yrotation Zrotation
				JOINT RightFoot
				{
					OFFSET -0.018946 -31.938126 -4.336299
					CHANNELS 3 Xrotation Yrotation Zrotation
					JOINT RightToeBase
					{
						OFFSET -0.943001 -26.722004 15.023500
						CHANNELS 3 Xrotation Yrotation Zrotation
						End Site
						{
							OFFSET 0 0 0
						}
					}
				}
			}
		}
	}
	JOINT Hips_virtual
	{
		OFFSET 0.000000 0.000000 0.000000
		CHANNELS 3 Xrotation Yrotation Zrotation
		JOINT Hips
		{
			OFFSET -0.000000 -0.000000 -0.000000
			CHANNELS 3 Xrotation Yrotation Zrotation
			JOINT Spine
			{
				OFFSET 0.000000 10.199997 -0.299500
				CHANNELS 3 Xrotation Yrotation Zrotation
				JOINT Spine1
				{
					OFFSET 0.000000 11.900002 -1.516600
					CHANNELS 3 Xrotation Yrotation Zrotation
					JOINT Spine2
					{
						OFFSET 0.000000 13.600006 -2.842500
						CHANNELS 3 Xrotation Yrotation Zrotation
						JOINT Neck_virtual
						{
							OFFSET 0.000000 0.000000 0.000000
							CHANNELS 3 Xrotation Yrotation Zrotation
							JOINT Neck
							{
								OFFSET 0.000000 9.624100 -2.890100
								CHANNELS 3 Xrotation Yrotation Zrotation
								JOINT Head
								{
									OFFSET 0.000000 14.068802 -1.351900
									CHANNELS 3 Xrotation Yrotation Zrotation
									End Site
									{
										OFFSET 0 0 0
									}
								}
							}
						}
						JOINT LeftShoulder_virtual
						{
							OFFSET 0.000000 0.000000 0.000000
							CHANNELS 3 Xrotation Yrotation Zrotation
							JOINT LeftShoulder
							{
								OFFSET 15.263000 10.923401 -0.547700
								CHANNELS 3 Xrotation Yrotation Zrotation
								JOINT LeftArm
								{
									OFFSET 25.438599 -2.830597 -13.032500
									CHANNELS 3 Xrotation Yrotation Zrotation
									JOINT LeftForeArm
									{
										OFFSET 29.960503 0.000000 0.000000
										CHANNELS 3 Xrotation Yrotation Zrotation
										JOINT LeftHand
										{
											OFFSET 27.849251 0.000000 0.000000
											CHANNELS 3 Xrotation Yrotation Zrotation
											End Site
											{
												OFFSET 0 0 0
											}
										}
									}
								}
							}
						}
						JOINT RightShoulder_virtual
						{
							OFFSET 0.000000 0.000000 0.000000
							CHANNELS 3 Xrotation Yrotation Zrotation
							JOINT RightShoulder
							{
								OFFSET -15.263000 10.923401 -0.547700
								CHANNELS 3 Xrotation Yrotation Zrotation
								JOINT RightArm
								{
									OFFSET -25.438599 -2.830597 -13.032500
									CHANNELS 3 Xrotation Yrotation Zrotation
									JOINT RightForeArm
									{
										OFFSET -29.960503 0.000000 0.000000
										CHANNELS 3 Xrotation Yrotation Zrotation
										JOINT RightHand
										{
											OFFSET -27.849251 0.000000 0.000000
											CHANNELS 3 Xrotation Yrotation Zrotation
											End Site
											{
												OFFSET 0 0 0
											}
										}
									}
								}
							}
						}
					}
				}
			}
		}
	}
}
MOTION
Frames: 5
Frame Time: 0.03333333
0.596023 54.641090 13.432743 0.000000 0.000000 0.000000 9.784716 0.915563 2.229428 -110.594362 -11.583226 10.609149 88.097686 5.194573 -0.164955 14.933529 -7.687706 -9.907638 0.000000 0.000000 0.000000 9.784716 0.915563 2.229428 -113.873638 15.992357 -7.446214 90.382623 -3.334962 -1.413386 16.125501 0.901852 11.503141 0.000000 0.000000 0.000000 9.784716 0.915563 2.229428 0.000000 0.000000 0.000000 6.359479 -1.760182 -1.491356 12.307236 -0.957520 -1.014769 0.000000 0.000000 0.000000 12.300696 -1.002995 -1.017735 -1.448891 -0.231852 -0.092743 0.000000 0.000000 0.000000 12.300696 -1.002995 -1.017735 2.110515 -13.413052 4.780011 -60.316806 -31.265208 -11.184051 179.999991 -66.659149 -179.999991 0.000000 0.000000 0.000000 12.300696 -1.002995 -1.017735 1.406737 10.858770 -3.428317 -74.231548 34.456129 29.321866 -180.000005 62.903071 179.999991 0.000000 0.000000 0.000000 
0.576981 54.578690 13.234585 0.000000 0.000000 0.000000 10.034367 1.038131 2.041847 -111.014063 -11.618514 10.529356 87.684124 5.136262 -0.158009 15.465244 -7.711510 -9.690076 0.000000 0.000000 0.000000 10.034367 1.038131 2.041847 -114.027317 15.915160 -7.432410 90.070524 -3.570278 -1.408726 16.397864 0.938361 11.569009 0.000000 0.000000 0.000000 10.034367 1.038131 2.041847 0.000001 0.000000 0.000000 6.658071 -1.716729 -1.456624 12.424805 -1.025003 -1.058488 0.000000 0.000000 0.000000 12.417981 -1.068097 -1.061768 -0.757923 -0.237860 -0.105500 0.000000 0.000000 0.000000 12.417981 -1.068097 -1.061768 2.032571 -12.676391 5.127216 -60.706407 -30.617108 -11.221792 -179.999923 -66.202927 -179.999923 0.000000 0.000000 0.000000 12.417981 -1.068097 -1.061768 1.410440 10.679839 -3.565132 -74.164516 34.359075 28.526546 179.999964 62.873073 -179.999964 0.000000 0.000000 0.000000 
0.612892 54.435478 13.118137 0.000000 0.000000 0.000000 10.527494 1.226959 2.004983 -111.740672 -11.470880 10.286681 87.362054 5.229145 -0.147183 15.962173 -7.736348 -9.386791 0.000000 0.000000 0.000000 10.527494 1.226959 2.004983 -114.629180 16.107835 -7.395088 89.939378 -3.762851 -1.407907 16.698458 0.989184 11.615733 0.000000 0.000000 0.000000 10.527494 1.226959 2.004983 0.000000 0.000000 0.000000 7.086588 -1.643415 -1.444465 12.767364 -1.020628 -1.140127 0.000000 0.000000 0.000000 12.760481 -1.062331 -1.143889 0.521330 -0.297262 -0.209163 0.000000 0.000000 0.000000 12.760481 -1.062331 -1.143889 2.068328 -12.394304 6.151577 -58.624449 -28.929895 -12.183163 179.999964 -65.051972 179.999964 0.000000 0.000000 0.000000 12.760481 -1.062331 -1.143889 1.461482 11.134550 -3.330572 -71.860475 33.821669 27.199854 -180.000005 62.565503 179.999991 0.000000 0.000000 0.000000 
0.667188 54.298279 13.103962 0.000000 0.000000 0.000000 11.096253 1.426184 2.069562 -112.420297 -11.293995 10.071031 87.235845 5.325980 -0.147585 16.161527 -7.749327 -9.357767 0.000000 0.000000 0.000000 11.096253 1.426184 2.069562 -115.340325 16.484014 -7.396662 90.025841 -3.819310 -1.403829 16.817266 1.022771 11.751582 0.000000 0.000000 0.000000 11.096253 1.426184 2.069562 -0.000001 0.000000 0.000000 7.559230 -1.544235 -1.456326 13.167892 -0.921942 -1.227742 0.000000 0.000000 0.000000 13.161510 -0.962646 -1.229826 1.940805 -0.382041 -0.356007 0.000000 0.000000 0.000000 13.161510 -0.962646 -1.229826 2.167035 -12.215279 7.794455 -54.283229 -27.085351 -14.223964 -180.000005 -63.627522 180.000005 0.000000 0.000000 0.000000 13.161510 -0.962646 -1.229826 1.506031 11.775372 -2.798576 -67.693616 33.040340 25.501039 -179.999937 62.236793 179.999937 0.000000 0.000000 0.000000 
0.689177 54.288986 13.140709 0.000000 0.000000 0.000000 11.535178 1.561257 2.078802 -112.766300 -11.221409 9.987301 87.151657 5.328583 -0.152580 16.130994 -7.749565 -9.485043 0.000000 0.000000 0.000000 11.535178 1.561257 2.078802 -115.687477 16.719326 -7.434854 90.092231 -3.849757 -1.397552 16.716920 1.027099 11.934157 0.000000 0.000000 0.000000 11.535178 1.561257 2.078802 -0.000001 0.000000 0.000000 7.974020 -1.449194 -1.476631 13.423679 -0.778730 -1.275637 0.000000 0.000000 0.000000 13.418328 -0.818348 -1.272997 2.945342 -0.448110 -0.460312 0.000000 0.000000 0.000000 13.418328 -0.818348 -1.272997 2.239040 -11.926239 9.537963 -49.655363 -26.049088 -16.523723 179.999991 -62.601388 179.999991 0.000000 0.000000 0.000000 13.418328 -0.818348 -1.272997 1.516741 12.145112 -2.309169 -63.475823 32.392807 23.799939 -179.999964 62.123767 179.999978 0.000000 0.000000 0.000000 
